# xmcd
#
# Track frame offsets:
#	150
#	6052
#	21434
#	33779
#	42954
#	55848
#	71775
#	92063
#	105171
#	136724
#	155264
#	166191
#	180637
#	190555
#	202589
#	220906
#	235779
#	249088
#	267820
#	285853
#	306039
#
# Disc length: 4342 seconds
#
# Revision: 1
# Processed by: cddbd v1.5.2PL0 Copyright (c) Steve Scherf et al.
# Submitted via: audiograbber 1.83.01
#
DISCID=fa10f415
DTITLE=Michael Nesmith and The First National Band Redux - Live at the Troubadour
DYEAR=2019
DGENRE=Country
TTITLE0=Intro (Live Recording)
TTITLE1=Nevada Fighter (Live Recording)
TTITLE2=Calico Girlfriend (Live Recording)
TTITLE3=Nine Times Blue (Live Recording)
TTITLE4=Little Red Rider (Live Recording)
TTITLE5=The Crippled Lion (Live Recording)
TTITLE6=Joanne (Live Recording)
TTITLE7=Dedicated Friend (Live Recording)
TTITLE8=Grand Ennui (Live Recording)
TTITLE9=Lady of the Valley (Live Recording)
TTITLE10=50 Years Ago (Live Recording)
TTITLE11=Propinquity (I've Just Begun to Care) (Live Recording)
TTITLE12=Different Drum (Live Recording)
TTITLE13=Papa Gene's Blues (Live Recording)
TTITLE14=Tengo Amore (Live Recording)
TTITLE15=Keys to the Car (Live Recording)
TTITLE16=Mama Nantucket (Live Recording)
TTITLE17=Bye Bye Bye (Live Recording)
TTITLE18=Some of Shelly's Blues (Live Recording)
TTITLE19=Silver Moon (Live Recording)
TTITLE20=Thanx for the Ride (Live Recording)
EXTD=
EXTT0=
EXTT1=
EXTT2=
EXTT3=
EXTT4=
EXTT5=
EXTT6=
EXTT7=
EXTT8=
EXTT9=
EXTT10=
EXTT11=
EXTT12=
EXTT13=
EXTT14=
EXTT15=
EXTT16=
EXTT17=
EXTT18=
EXTT19=
EXTT20=
PLAYORDER=
